<?xml version="1.0" encoding="UTF-8" standalone="no"?>
<!DOCTYPE svg PUBLIC "-//W3C//DTD SVG 1.1//EN"
 "http://www.w3.org/Graphics/SVG/1.1/DTD/svg11.dtd">
<!-- Generated by graphviz version 14.1.1 (20251213.1925)
 -->
<!-- Title: InheritanceTree Pages: 1 -->
<svg width="428pt" height="429pt"
 viewBox="0.00 0.00 428.00 429.00" xmlns="http://www.w3.org/2000/svg" xmlns:xlink="http://www.w3.org/1999/xlink">
<g id="graph0" class="graph" transform="scale(1 1) rotate(0) translate(4 424.5)">
<title>InheritanceTree</title>
<polygon fill="white" stroke="none" points="-4,4 -4,-424.5 423.75,-424.5 423.75,4 -4,4"/>
<text xml:space="preserve" text-anchor="middle" x="209.88" y="-7.2" font-family="Times New Roman,serif" font-size="14.00">simple_bluetooth &#45; Inheritance Hierarchy</text>
<!-- BLUETOOTH_DEVICE -->
<g id="node1" class="node">
<title>BLUETOOTH_DEVICE</title>
<path fill="none" stroke="black" d="M160.38,-60.5C160.38,-60.5 31.12,-60.5 31.12,-60.5 25.12,-60.5 19.12,-54.5 19.12,-48.5 19.12,-48.5 19.12,-36.5 19.12,-36.5 19.12,-30.5 25.12,-24.5 31.12,-24.5 31.12,-24.5 160.38,-24.5 160.38,-24.5 166.38,-24.5 172.38,-30.5 172.38,-36.5 172.38,-36.5 172.38,-48.5 172.38,-48.5 172.38,-54.5 166.38,-60.5 160.38,-60.5"/>
<text xml:space="preserve" text-anchor="middle" x="95.75" y="-37.45" font-family="Times New Roman,serif" font-size="14.00">BLUETOOTH_DEVICE</text>
</g>
<!-- BLUETOOTH_SCANNER -->
<g id="node2" class="node">
<title>BLUETOOTH_SCANNER</title>
<path fill="none" stroke="black" d="M167.12,-132.5C167.12,-132.5 24.38,-132.5 24.38,-132.5 18.38,-132.5 12.38,-126.5 12.38,-120.5 12.38,-120.5 12.38,-108.5 12.38,-108.5 12.38,-102.5 18.38,-96.5 24.38,-96.5 24.38,-96.5 167.12,-96.5 167.12,-96.5 173.12,-96.5 179.12,-102.5 179.12,-108.5 179.12,-108.5 179.12,-120.5 179.12,-120.5 179.12,-126.5 173.12,-132.5 167.12,-132.5"/>
<text xml:space="preserve" text-anchor="middle" x="95.75" y="-109.45" font-family="Times New Roman,serif" font-size="14.00">BLUETOOTH_SCANNER</text>
</g>
<!-- BLUETOOTH_SERIAL_PORT -->
<g id="node3" class="node">
<title>BLUETOOTH_SERIAL_PORT</title>
<path fill="none" stroke="black" d="M179.5,-204.5C179.5,-204.5 12,-204.5 12,-204.5 6,-204.5 0,-198.5 0,-192.5 0,-192.5 0,-180.5 0,-180.5 0,-174.5 6,-168.5 12,-168.5 12,-168.5 179.5,-168.5 179.5,-168.5 185.5,-168.5 191.5,-174.5 191.5,-180.5 191.5,-180.5 191.5,-192.5 191.5,-192.5 191.5,-198.5 185.5,-204.5 179.5,-204.5"/>
<text xml:space="preserve" text-anchor="middle" x="95.75" y="-181.45" font-family="Times New Roman,serif" font-size="14.00">BLUETOOTH_SERIAL_PORT</text>
</g>
<!-- SIMPLE_BLUETOOTH -->
<g id="node4" class="node">
<title>SIMPLE_BLUETOOTH</title>
<path fill="none" stroke="black" d="M160,-276.5C160,-276.5 31.5,-276.5 31.5,-276.5 25.5,-276.5 19.5,-270.5 19.5,-264.5 19.5,-264.5 19.5,-252.5 19.5,-252.5 19.5,-246.5 25.5,-240.5 31.5,-240.5 31.5,-240.5 160,-240.5 160,-240.5 166,-240.5 172,-246.5 172,-252.5 172,-252.5 172,-264.5 172,-264.5 172,-270.5 166,-276.5 160,-276.5"/>
<text xml:space="preserve" text-anchor="middle" x="95.75" y="-253.45" font-family="Times New Roman,serif" font-size="14.00">SIMPLE_BLUETOOTH</text>
</g>
<!-- ANY -->
<g id="node5" class="node">
<title>ANY</title>
<path fill="none" stroke="black" d="M374.62,-276.5C374.62,-276.5 344.62,-276.5 344.62,-276.5 338.62,-276.5 332.62,-270.5 332.62,-264.5 332.62,-264.5 332.62,-252.5 332.62,-252.5 332.62,-246.5 338.62,-240.5 344.62,-240.5 344.62,-240.5 374.62,-240.5 374.62,-240.5 380.62,-240.5 386.62,-246.5 386.62,-252.5 386.62,-252.5 386.62,-264.5 386.62,-264.5 386.62,-270.5 380.62,-276.5 374.62,-276.5"/>
<text xml:space="preserve" text-anchor="middle" x="359.62" y="-253.45" font-family="Times New Roman,serif" font-size="14.00">ANY</text>
</g>
<!-- SIMPLE_BLUETOOTH&#45;&gt;ANY -->
<g id="edge1" class="edge">
<title>SIMPLE_BLUETOOTH&#45;&gt;ANY</title>
<path fill="none" stroke="black" d="M172.43,-258.5C172.43,-258.5 320.71,-258.5 320.71,-258.5"/>
<polygon fill="none" stroke="black" points="320.71,-262 330.71,-258.5 320.71,-255 320.71,-262"/>
</g>
<!-- LIB_TESTS -->
<g id="node6" class="node">
<title>LIB_TESTS</title>
<path fill="none" stroke="black" d="M125.88,-348.5C125.88,-348.5 65.62,-348.5 65.62,-348.5 59.62,-348.5 53.62,-342.5 53.62,-336.5 53.62,-336.5 53.62,-324.5 53.62,-324.5 53.62,-318.5 59.62,-312.5 65.62,-312.5 65.62,-312.5 125.88,-312.5 125.88,-312.5 131.88,-312.5 137.88,-318.5 137.88,-324.5 137.88,-324.5 137.88,-336.5 137.88,-336.5 137.88,-342.5 131.88,-348.5 125.88,-348.5"/>
<text xml:space="preserve" text-anchor="middle" x="95.75" y="-325.45" font-family="Times New Roman,serif" font-size="14.00">LIB_TESTS</text>
</g>
<!-- TEST_SET_BASE -->
<g id="node7" class="node">
<title>TEST_SET_BASE</title>
<path fill="none" stroke="black" d="M407.75,-348.5C407.75,-348.5 311.5,-348.5 311.5,-348.5 305.5,-348.5 299.5,-342.5 299.5,-336.5 299.5,-336.5 299.5,-324.5 299.5,-324.5 299.5,-318.5 305.5,-312.5 311.5,-312.5 311.5,-312.5 407.75,-312.5 407.75,-312.5 413.75,-312.5 419.75,-318.5 419.75,-324.5 419.75,-324.5 419.75,-336.5 419.75,-336.5 419.75,-342.5 413.75,-348.5 407.75,-348.5"/>
<text xml:space="preserve" text-anchor="middle" x="359.62" y="-325.45" font-family="Times New Roman,serif" font-size="14.00">TEST_SET_BASE</text>
</g>
<!-- LIB_TESTS&#45;&gt;TEST_SET_BASE -->
<g id="edge2" class="edge">
<title>LIB_TESTS&#45;&gt;TEST_SET_BASE</title>
<path fill="none" stroke="black" d="M138.15,-330.5C138.15,-330.5 287.63,-330.5 287.63,-330.5"/>
<polygon fill="none" stroke="black" points="287.63,-334 297.63,-330.5 287.63,-327 287.63,-334"/>
</g>
<!-- TEST_APP -->
<g id="node8" class="node">
<title>TEST_APP</title>
<path fill="none" stroke="black" d="M123.62,-420.5C123.62,-420.5 67.88,-420.5 67.88,-420.5 61.88,-420.5 55.88,-414.5 55.88,-408.5 55.88,-408.5 55.88,-396.5 55.88,-396.5 55.88,-390.5 61.88,-384.5 67.88,-384.5 67.88,-384.5 123.62,-384.5 123.62,-384.5 129.62,-384.5 135.62,-390.5 135.62,-396.5 135.62,-396.5 135.62,-408.5 135.62,-408.5 135.62,-414.5 129.62,-420.5 123.62,-420.5"/>
<text xml:space="preserve" text-anchor="middle" x="95.75" y="-397.45" font-family="Times New Roman,serif" font-size="14.00">TEST_APP</text>
</g>
</g>
</svg>
