<?xml version="1.0" encoding="UTF-8" standalone="no"?>
<!DOCTYPE svg PUBLIC "-//W3C//DTD SVG 1.1//EN"
 "http://www.w3.org/Graphics/SVG/1.1/DTD/svg11.dtd">
<!-- Generated by graphviz version 14.1.1 (20251213.1925)
 -->
<!-- Title: ContractCoverage Pages: 1 -->
<svg width="816pt" height="906pt"
 viewBox="48.00 48.00 768.00 858.00" xmlns="http://www.w3.org/2000/svg" xmlns:xlink="http://www.w3.org/1999/xlink">
<g id="graph0" class="graph" transform="scale(0.647191 0.647191) rotate(0) translate(78.17 1321.79)">
<title>ContractCoverage</title>
<polygon fill="white" stroke="none" points="-4,4 -4,-1247.62 1108.5,-1247.62 1108.5,4 -4,4"/>
<text xml:space="preserve" text-anchor="middle" x="552.25" y="-1230.12" font-family="Times New Roman,serif" font-size="10.00">simple_bluetooth &#45; Contract Coverage</text>
<g id="clust1" class="cluster">
<title>cluster_BLUETOOTH_DEVICE</title>
<polygon fill="white" stroke="black" points="68.25,-917.88 68.25,-1224.38 318.75,-1224.38 318.75,-917.88 68.25,-917.88"/>
<text xml:space="preserve" text-anchor="middle" x="193.5" y="-1207.08" font-family="Times New Roman,serif" font-size="14.00">BLUETOOTH_DEVICE</text>
</g>
<g id="clust2" class="cluster">
<title>cluster_BLUETOOTH_SCANNER</title>
<polygon fill="white" stroke="black" points="748.12,-645.88 748.12,-982.38 1052.88,-982.38 1052.88,-645.88 748.12,-645.88"/>
<text xml:space="preserve" text-anchor="middle" x="900.5" y="-965.08" font-family="Times New Roman,serif" font-size="14.00">BLUETOOTH_SCANNER</text>
</g>
<g id="clust3" class="cluster">
<title>cluster_BLUETOOTH_SERIAL_PORT</title>
<polygon fill="white" stroke="black" points="374.12,-781.88 374.12,-1106.38 666.88,-1106.38 666.88,-781.88 374.12,-781.88"/>
<text xml:space="preserve" text-anchor="middle" x="520.5" y="-1089.08" font-family="Times New Roman,serif" font-size="14.00">BLUETOOTH_SERIAL_PORT</text>
</g>
<g id="clust4" class="cluster">
<title>cluster_SIMPLE_BLUETOOTH</title>
<polygon fill="white" stroke="black" points="238.5,-271.88 238.5,-716.38 688.5,-716.38 688.5,-271.88 238.5,-271.88"/>
<text xml:space="preserve" text-anchor="middle" x="463.5" y="-699.08" font-family="Times New Roman,serif" font-size="14.00">SIMPLE_BLUETOOTH</text>
</g>
<g id="clust5" class="cluster">
<title>cluster_LIB_TESTS</title>
<polygon fill="white" stroke="black" points="748.5,-238.38 748.5,-571.88 1104.5,-571.88 1104.5,-238.38 748.5,-238.38"/>
<text xml:space="preserve" text-anchor="middle" x="926.5" y="-554.58" font-family="Times New Roman,serif" font-size="14.00">LIB_TESTS</text>
</g>
<g id="clust6" class="cluster">
<title>cluster_TEST_APP</title>
<polygon fill="white" stroke="black" points="0,-680.38 0,-855.88 179,-855.88 179,-680.38 0,-680.38"/>
<text xml:space="preserve" text-anchor="middle" x="89.5" y="-838.58" font-family="Times New Roman,serif" font-size="14.00">TEST_APP</text>
</g>
<g id="clust7" class="cluster">
<title>cluster_legend</title>
<polygon fill="lightyellow" stroke="black" points="476.12,0 476.12,-188.25 688.87,-188.25 688.87,0 476.12,0"/>
<text xml:space="preserve" text-anchor="middle" x="582.5" y="-174.75" font-family="Times New Roman,serif" font-size="10.00">Legend</text>
</g>
<!-- BLUETOOTH_DEVICE_make -->
<g id="node1" class="node">
<title>BLUETOOTH_DEVICE_make</title>
<polygon fill="palegreen" stroke="black" points="212.75,-953.88 158.75,-953.88 158.75,-917.88 212.75,-917.88 212.75,-953.88"/>
<text xml:space="preserve" text-anchor="middle" x="185.75" y="-932" font-family="Times New Roman,serif" font-size="10.00">make</text>
</g>
<!-- BLUETOOTH_DEVICE_make_unknown -->
<g id="node2" class="node">
<title>BLUETOOTH_DEVICE_make_unknown</title>
<polygon fill="palegreen" stroke="black" points="300.75,-1013.88 218.75,-1013.88 218.75,-977.88 300.75,-977.88 300.75,-1013.88"/>
<text xml:space="preserve" text-anchor="middle" x="259.75" y="-992" font-family="Times New Roman,serif" font-size="10.00">make_unknown</text>
</g>
<!-- BLUETOOTH_DEVICE_name -->
<g id="node3" class="node">
<title>BLUETOOTH_DEVICE_name</title>
<polygon fill="lightgray" stroke="black" points="146.75,-1199.88 92.75,-1199.88 92.75,-1163.88 146.75,-1163.88 146.75,-1199.88"/>
<text xml:space="preserve" text-anchor="middle" x="119.75" y="-1178" font-family="Times New Roman,serif" font-size="10.00">name</text>
</g>
<!-- BLUETOOTH_DEVICE_address -->
<g id="node4" class="node">
<title>BLUETOOTH_DEVICE_address</title>
<polygon fill="lightgray" stroke="black" points="224.75,-1199.88 170.75,-1199.88 170.75,-1163.88 224.75,-1163.88 224.75,-1199.88"/>
<text xml:space="preserve" text-anchor="middle" x="197.75" y="-1178" font-family="Times New Roman,serif" font-size="10.00">address</text>
</g>
<!-- BLUETOOTH_DEVICE_com_port -->
<g id="node5" class="node">
<title>BLUETOOTH_DEVICE_com_port</title>
<polygon fill="lightgray" stroke="black" points="291.25,-953.88 236.25,-953.88 236.25,-917.88 291.25,-917.88 291.25,-953.88"/>
<text xml:space="preserve" text-anchor="middle" x="263.75" y="-932" font-family="Times New Roman,serif" font-size="10.00">com_port</text>
</g>
<!-- BLUETOOTH_DEVICE_display_name -->
<g id="node6" class="node">
<title>BLUETOOTH_DEVICE_display_name</title>
<polygon fill="khaki" stroke="black" points="165.25,-1139.88 92.25,-1139.88 92.25,-1103.88 165.25,-1103.88 165.25,-1139.88"/>
<text xml:space="preserve" text-anchor="middle" x="128.75" y="-1118" font-family="Times New Roman,serif" font-size="10.00">display_name</text>
</g>
<!-- BLUETOOTH_DEVICE_is_unknown -->
<g id="node7" class="node">
<title>BLUETOOTH_DEVICE_is_unknown</title>
<polygon fill="lightcoral" stroke="black" points="135.25,-995.88 68.25,-995.88 68.25,-959.88 135.25,-959.88 135.25,-995.88"/>
<text xml:space="preserve" text-anchor="middle" x="101.75" y="-974" font-family="Times New Roman,serif" font-size="10.00">is_unknown</text>
</g>
<!-- BLUETOOTH_DEVICE_has_valid_address -->
<g id="node8" class="node">
<title>BLUETOOTH_DEVICE_has_valid_address</title>
<polygon fill="lightcoral" stroke="black" points="195.25,-1055.88 104.25,-1055.88 104.25,-1019.88 195.25,-1019.88 195.25,-1055.88"/>
<text xml:space="preserve" text-anchor="middle" x="149.75" y="-1034" font-family="Times New Roman,serif" font-size="10.00">has_valid_address</text>
</g>
<!-- BLUETOOTH_DEVICE_is_same_device -->
<g id="node9" class="node">
<title>BLUETOOTH_DEVICE_is_same_device</title>
<polygon fill="khaki" stroke="black" points="269,-1115.88 188.5,-1115.88 188.5,-1079.88 269,-1079.88 269,-1115.88"/>
<text xml:space="preserve" text-anchor="middle" x="228.75" y="-1094" font-family="Times New Roman,serif" font-size="10.00">is_same_device</text>
</g>
<!-- BLUETOOTH_DEVICE_is_same_port -->
<g id="node10" class="node">
<title>BLUETOOTH_DEVICE_is_same_port</title>
<polygon fill="lightcoral" stroke="black" points="318.75,-1175.88 248.75,-1175.88 248.75,-1139.88 318.75,-1139.88 318.75,-1175.88"/>
<text xml:space="preserve" text-anchor="middle" x="283.75" y="-1154" font-family="Times New Roman,serif" font-size="10.00">is_same_port</text>
</g>
<!-- BLUETOOTH_SCANNER_make -->
<g id="node11" class="node">
<title>BLUETOOTH_SCANNER_make</title>
<polygon fill="lightcoral" stroke="black" points="802.12,-897.88 748.12,-897.88 748.12,-861.88 802.12,-861.88 802.12,-897.88"/>
<text xml:space="preserve" text-anchor="middle" x="775.12" y="-876" font-family="Times New Roman,serif" font-size="10.00">make</text>
</g>
<!-- BLUETOOTH_SCANNER_devices -->
<g id="node12" class="node">
<title>BLUETOOTH_SCANNER_devices</title>
<polygon fill="lightgray" stroke="black" points="1036.12,-681.88 982.12,-681.88 982.12,-645.88 1036.12,-645.88 1036.12,-681.88"/>
<text xml:space="preserve" text-anchor="middle" x="1009.12" y="-660" font-family="Times New Roman,serif" font-size="10.00">devices</text>
</g>
<!-- BLUETOOTH_SCANNER_device_count -->
<g id="node13" class="node">
<title>BLUETOOTH_SCANNER_device_count</title>
<polygon fill="lightcoral" stroke="black" points="878.88,-729.87 807.38,-729.87 807.38,-693.87 878.88,-693.87 878.88,-729.87"/>
<text xml:space="preserve" text-anchor="middle" x="843.12" y="-708" font-family="Times New Roman,serif" font-size="10.00">device_count</text>
</g>
<!-- BLUETOOTH_SCANNER_device_at -->
<g id="node14" class="node">
<title>BLUETOOTH_SCANNER_device_at</title>
<polygon fill="khaki" stroke="black" points="881,-939.87 825.25,-939.87 825.25,-903.87 881,-903.87 881,-939.87"/>
<text xml:space="preserve" text-anchor="middle" x="853.12" y="-918" font-family="Times New Roman,serif" font-size="10.00">device_at</text>
</g>
<!-- BLUETOOTH_SCANNER_has_devices -->
<g id="node15" class="node">
<title>BLUETOOTH_SCANNER_has_devices</title>
<polygon fill="lightcoral" stroke="black" points="1052.88,-909.87 987.37,-909.87 987.37,-873.87 1052.88,-873.87 1052.88,-909.87"/>
<text xml:space="preserve" text-anchor="middle" x="1020.12" y="-888" font-family="Times New Roman,serif" font-size="10.00">has_devices</text>
</g>
<!-- BLUETOOTH_SCANNER_is_scanning -->
<g id="node16" class="node">
<title>BLUETOOTH_SCANNER_is_scanning</title>
<polygon fill="lightgray" stroke="black" points="968.5,-939.87 903.75,-939.87 903.75,-903.87 968.5,-903.87 968.5,-939.87"/>
<text xml:space="preserve" text-anchor="middle" x="936.12" y="-918" font-family="Times New Roman,serif" font-size="10.00">is_scanning</text>
</g>
<!-- BLUETOOTH_SCANNER_scan -->
<g id="node17" class="node">
<title>BLUETOOTH_SCANNER_scan</title>
<polygon fill="khaki" stroke="black" points="802.12,-957.87 748.12,-957.87 748.12,-921.87 802.12,-921.87 802.12,-957.87"/>
<text xml:space="preserve" text-anchor="middle" x="775.12" y="-936" font-family="Times New Roman,serif" font-size="10.00">scan</text>
</g>
<!-- BLUETOOTH_SCANNER_refresh -->
<g id="node18" class="node">
<title>BLUETOOTH_SCANNER_refresh</title>
<polygon fill="lightcoral" stroke="black" points="814.12,-819.87 760.12,-819.87 760.12,-783.87 814.12,-783.87 814.12,-819.87"/>
<text xml:space="preserve" text-anchor="middle" x="787.12" y="-798" font-family="Times New Roman,serif" font-size="10.00">refresh</text>
</g>
<!-- BLUETOOTH_SCANNER_device_for_port -->
<g id="node19" class="node">
<title>BLUETOOTH_SCANNER_device_for_port</title>
<polygon fill="lightcoral" stroke="black" points="906.75,-879.88 825.5,-879.88 825.5,-843.88 906.75,-843.88 906.75,-879.88"/>
<text xml:space="preserve" text-anchor="middle" x="866.12" y="-858" font-family="Times New Roman,serif" font-size="10.00">device_for_port</text>
</g>
<!-- BLUETOOTH_SCANNER_has_port -->
<g id="node20" class="node">
<title>BLUETOOTH_SCANNER_has_port</title>
<polygon fill="lightcoral" stroke="black" points="958.12,-681.88 904.12,-681.88 904.12,-645.88 958.12,-645.88 958.12,-681.88"/>
<text xml:space="preserve" text-anchor="middle" x="931.12" y="-660" font-family="Times New Roman,serif" font-size="10.00">has_port</text>
</g>
<!-- BLUETOOTH_SCANNER_serial_enumerator -->
<g id="node21" class="node">
<title>BLUETOOTH_SCANNER_serial_enumerator</title>
<polygon fill="lightgray" stroke="black" points="1052.5,-741.87 963.75,-741.87 963.75,-705.87 1052.5,-705.87 1052.5,-741.87"/>
<text xml:space="preserve" text-anchor="middle" x="1008.12" y="-720" font-family="Times New Roman,serif" font-size="10.00">serial_enumerator</text>
</g>
<!-- BLUETOOTH_SCANNER_add_device_for_port -->
<g id="node22" class="node">
<title>BLUETOOTH_SCANNER_add_device_for_port</title>
<polygon fill="lightcoral" stroke="black" points="938.88,-789.88 837.38,-789.88 837.38,-753.88 938.88,-753.88 938.88,-789.88"/>
<text xml:space="preserve" text-anchor="middle" x="888.12" y="-768" font-family="Times New Roman,serif" font-size="10.00">add_device_for_port</text>
</g>
<!-- BLUETOOTH_SCANNER_query_device_name -->
<g id="node23" class="node">
<title>BLUETOOTH_SCANNER_query_device_name</title>
<polygon fill="lightgray" stroke="black" points="1026.38,-849.87 927.88,-849.87 927.88,-813.87 1026.38,-813.87 1026.38,-849.87"/>
<text xml:space="preserve" text-anchor="middle" x="977.12" y="-828" font-family="Times New Roman,serif" font-size="10.00">query_device_name</text>
</g>
<!-- BLUETOOTH_SERIAL_PORT_make -->
<g id="node24" class="node">
<title>BLUETOOTH_SERIAL_PORT_make</title>
<polygon fill="palegreen" stroke="black" points="428.12,-1081.88 374.12,-1081.88 374.12,-1045.88 428.12,-1045.88 428.12,-1081.88"/>
<text xml:space="preserve" text-anchor="middle" x="401.12" y="-1060" font-family="Times New Roman,serif" font-size="10.00">make</text>
</g>
<!-- BLUETOOTH_SERIAL_PORT_make_for_device -->
<g id="node25" class="node">
<title>BLUETOOTH_SERIAL_PORT_make_for_device</title>
<polygon fill="palegreen" stroke="black" points="634.38,-979.88 547.88,-979.88 547.88,-943.88 634.38,-943.88 634.38,-979.88"/>
<text xml:space="preserve" text-anchor="middle" x="591.12" y="-958" font-family="Times New Roman,serif" font-size="10.00">make_for_device</text>
</g>
<!-- BLUETOOTH_SERIAL_PORT_make_with_config -->
<g id="node26" class="node">
<title>BLUETOOTH_SERIAL_PORT_make_with_config</title>
<polygon fill="palegreen" stroke="black" points="556.75,-919.88 463.5,-919.88 463.5,-883.88 556.75,-883.88 556.75,-919.88"/>
<text xml:space="preserve" text-anchor="middle" x="510.12" y="-898" font-family="Times New Roman,serif" font-size="10.00">make_with_config</text>
</g>
<!-- BLUETOOTH_SERIAL_PORT_device -->
<g id="node27" class="node">
<title>BLUETOOTH_SERIAL_PORT_device</title>
<polygon fill="lightgray" stroke="black" points="572.12,-817.88 518.12,-817.88 518.12,-781.88 572.12,-781.88 572.12,-817.88"/>
<text xml:space="preserve" text-anchor="middle" x="545.12" y="-796" font-family="Times New Roman,serif" font-size="10.00">device</text>
</g>
<!-- BLUETOOTH_SERIAL_PORT_port_name -->
<g id="node28" class="node">
<title>BLUETOOTH_SERIAL_PORT_port_name</title>
<polygon fill="lightgray" stroke="black" points="666.87,-1039.88 607.37,-1039.88 607.37,-1003.87 666.87,-1003.87 666.87,-1039.88"/>
<text xml:space="preserve" text-anchor="middle" x="637.12" y="-1018" font-family="Times New Roman,serif" font-size="10.00">port_name</text>
</g>
<!-- BLUETOOTH_SERIAL_PORT_config -->
<g id="node29" class="node">
<title>BLUETOOTH_SERIAL_PORT_config</title>
<polygon fill="lightgray" stroke="black" points="584.12,-1069.88 530.12,-1069.88 530.12,-1033.88 584.12,-1033.88 584.12,-1069.88"/>
<text xml:space="preserve" text-anchor="middle" x="557.12" y="-1048" font-family="Times New Roman,serif" font-size="10.00">config</text>
</g>
<!-- BLUETOOTH_SERIAL_PORT_last_error -->
<g id="node30" class="node">
<title>BLUETOOTH_SERIAL_PORT_last_error</title>
<polygon fill="lightgray" stroke="black" points="650.25,-817.88 596,-817.88 596,-781.88 650.25,-781.88 650.25,-817.88"/>
<text xml:space="preserve" text-anchor="middle" x="623.12" y="-796" font-family="Times New Roman,serif" font-size="10.00">last_error</text>
</g>
<!-- BLUETOOTH_SERIAL_PORT_last_read_count -->
<g id="node31" class="node">
<title>BLUETOOTH_SERIAL_PORT_last_read_count</title>
<polygon fill="lightcoral" stroke="black" points="526.75,-1009.88 445.5,-1009.88 445.5,-973.88 526.75,-973.88 526.75,-1009.88"/>
<text xml:space="preserve" text-anchor="middle" x="486.12" y="-988" font-family="Times New Roman,serif" font-size="10.00">last_read_count</text>
</g>
<!-- BLUETOOTH_SERIAL_PORT_last_write_count -->
<g id="node32" class="node">
<title>BLUETOOTH_SERIAL_PORT_last_write_count</title>
<polygon fill="lightcoral" stroke="black" points="662.62,-877.88 577.62,-877.88 577.62,-841.88 662.62,-841.88 662.62,-877.88"/>
<text xml:space="preserve" text-anchor="middle" x="620.12" y="-856" font-family="Times New Roman,serif" font-size="10.00">last_write_count</text>
</g>
<!-- BLUETOOTH_SERIAL_PORT_is_open -->
<g id="node33" class="node">
<title>BLUETOOTH_SERIAL_PORT_is_open</title>
<polygon fill="lightgray" stroke="black" points="506.12,-1069.88 452.12,-1069.88 452.12,-1033.88 506.12,-1033.88 506.12,-1069.88"/>
<text xml:space="preserve" text-anchor="middle" x="479.12" y="-1048" font-family="Times New Roman,serif" font-size="10.00">is_open</text>
</g>
<!-- BLUETOOTH_SERIAL_PORT_has_error -->
<g id="node34" class="node">
<title>BLUETOOTH_SERIAL_PORT_has_error</title>
<polygon fill="lightcoral" stroke="black" points="440.12,-949.88 386.12,-949.88 386.12,-913.88 440.12,-913.88 440.12,-949.88"/>
<text xml:space="preserve" text-anchor="middle" x="413.12" y="-928" font-family="Times New Roman,serif" font-size="10.00">has_error</text>
</g>
<!-- BLUETOOTH_SERIAL_PORT_is_connected -->
<g id="node35" class="node">
<title>BLUETOOTH_SERIAL_PORT_is_connected</title>
<polygon fill="lightgray" stroke="black" points="498.12,-859.88 428.12,-859.88 428.12,-823.88 498.12,-823.88 498.12,-859.88"/>
<text xml:space="preserve" text-anchor="middle" x="463.12" y="-838" font-family="Times New Roman,serif" font-size="10.00">is_connected</text>
</g>
<!-- SIMPLE_BLUETOOTH_default_create -->
<g id="node36" class="node">
<title>SIMPLE_BLUETOOTH_default_create</title>
<polygon fill="lightcoral" stroke="black" points="611.38,-607.88 537.62,-607.88 537.62,-571.88 611.38,-571.88 611.38,-607.88"/>
<text xml:space="preserve" text-anchor="middle" x="574.5" y="-586" font-family="Times New Roman,serif" font-size="10.00">default_create</text>
</g>
<!-- SIMPLE_BLUETOOTH_make_with_config -->
<g id="node37" class="node">
<title>SIMPLE_BLUETOOTH_make_with_config</title>
<polygon fill="palegreen" stroke="black" points="487.12,-487.87 393.88,-487.87 393.88,-451.87 487.12,-451.87 487.12,-487.87"/>
<text xml:space="preserve" text-anchor="middle" x="440.5" y="-466" font-family="Times New Roman,serif" font-size="10.00">make_with_config</text>
</g>
<!-- SIMPLE_BLUETOOTH_devices -->
<g id="node38" class="node">
<title>SIMPLE_BLUETOOTH_devices</title>
<polygon fill="lightcoral" stroke="black" points="688.5,-565.88 634.5,-565.88 634.5,-529.88 688.5,-529.88 688.5,-565.88"/>
<text xml:space="preserve" text-anchor="middle" x="661.5" y="-544" font-family="Times New Roman,serif" font-size="10.00">devices</text>
</g>
<!-- SIMPLE_BLUETOOTH_device_count -->
<g id="node39" class="node">
<title>SIMPLE_BLUETOOTH_device_count</title>
<polygon fill="lightcoral" stroke="black" points="417.25,-631.88 345.75,-631.88 345.75,-595.88 417.25,-595.88 417.25,-631.88"/>
<text xml:space="preserve" text-anchor="middle" x="381.5" y="-610" font-family="Times New Roman,serif" font-size="10.00">device_count</text>
</g>
<!-- SIMPLE_BLUETOOTH_current_device -->
<g id="node40" class="node">
<title>SIMPLE_BLUETOOTH_current_device</title>
<polygon fill="lightcoral" stroke="black" points="458.88,-571.88 382.13,-571.88 382.13,-535.88 458.88,-535.88 458.88,-571.88"/>
<text xml:space="preserve" text-anchor="middle" x="420.5" y="-550" font-family="Times New Roman,serif" font-size="10.00">current_device</text>
</g>
<!-- SIMPLE_BLUETOOTH_config -->
<g id="node41" class="node">
<title>SIMPLE_BLUETOOTH_config</title>
<polygon fill="lightgray" stroke="black" points="688.5,-385.88 634.5,-385.88 634.5,-349.88 688.5,-349.88 688.5,-385.88"/>
<text xml:space="preserve" text-anchor="middle" x="661.5" y="-364" font-family="Times New Roman,serif" font-size="10.00">config</text>
</g>
<!-- SIMPLE_BLUETOOTH_last_error -->
<g id="node42" class="node">
<title>SIMPLE_BLUETOOTH_last_error</title>
<polygon fill="lightcoral" stroke="black" points="652.62,-325.88 598.38,-325.88 598.38,-289.88 652.62,-289.88 652.62,-325.88"/>
<text xml:space="preserve" text-anchor="middle" x="625.5" y="-304" font-family="Times New Roman,serif" font-size="10.00">last_error</text>
</g>
<!-- SIMPLE_BLUETOOTH_has_devices -->
<g id="node43" class="node">
<title>SIMPLE_BLUETOOTH_has_devices</title>
<polygon fill="lightcoral" stroke="black" points="609.25,-385.88 543.75,-385.88 543.75,-349.88 609.25,-349.88 609.25,-385.88"/>
<text xml:space="preserve" text-anchor="middle" x="576.5" y="-364" font-family="Times New Roman,serif" font-size="10.00">has_devices</text>
</g>
<!-- SIMPLE_BLUETOOTH_is_connected -->
<g id="node44" class="node">
<title>SIMPLE_BLUETOOTH_is_connected</title>
<polygon fill="lightcoral" stroke="black" points="524.5,-385.88 454.5,-385.88 454.5,-349.88 524.5,-349.88 524.5,-385.88"/>
<text xml:space="preserve" text-anchor="middle" x="489.5" y="-364" font-family="Times New Roman,serif" font-size="10.00">is_connected</text>
</g>
<!-- SIMPLE_BLUETOOTH_has_error -->
<g id="node45" class="node">
<title>SIMPLE_BLUETOOTH_has_error</title>
<polygon fill="lightcoral" stroke="black" points="574.5,-325.88 520.5,-325.88 520.5,-289.88 574.5,-289.88 574.5,-325.88"/>
<text xml:space="preserve" text-anchor="middle" x="547.5" y="-304" font-family="Times New Roman,serif" font-size="10.00">has_error</text>
</g>
<!-- SIMPLE_BLUETOOTH_scan -->
<g id="node46" class="node">
<title>SIMPLE_BLUETOOTH_scan</title>
<polygon fill="lightcoral" stroke="black" points="496.5,-325.88 442.5,-325.88 442.5,-289.88 496.5,-289.88 496.5,-325.88"/>
<text xml:space="preserve" text-anchor="middle" x="469.5" y="-304" font-family="Times New Roman,serif" font-size="10.00">scan</text>
</g>
<!-- SIMPLE_BLUETOOTH_refresh -->
<g id="node47" class="node">
<title>SIMPLE_BLUETOOTH_refresh</title>
<polygon fill="lightcoral" stroke="black" points="496.5,-691.88 442.5,-691.88 442.5,-655.88 496.5,-655.88 496.5,-691.88"/>
<text xml:space="preserve" text-anchor="middle" x="469.5" y="-670" font-family="Times New Roman,serif" font-size="10.00">refresh</text>
</g>
<!-- SIMPLE_BLUETOOTH_device_for_port -->
<g id="node48" class="node">
<title>SIMPLE_BLUETOOTH_device_for_port</title>
<polygon fill="lightcoral" stroke="black" points="589.12,-445.88 507.88,-445.88 507.88,-409.88 589.12,-409.88 589.12,-445.88"/>
<text xml:space="preserve" text-anchor="middle" x="548.5" y="-424" font-family="Times New Roman,serif" font-size="10.00">device_for_port</text>
</g>
<!-- SIMPLE_BLUETOOTH_open_device -->
<g id="node49" class="node">
<title>SIMPLE_BLUETOOTH_open_device</title>
<polygon fill="palegreen" stroke="black" points="372.75,-511.88 304.25,-511.88 304.25,-475.88 372.75,-475.88 372.75,-511.88"/>
<text xml:space="preserve" text-anchor="middle" x="338.5" y="-490" font-family="Times New Roman,serif" font-size="10.00">open_device</text>
</g>
<!-- SIMPLE_BLUETOOTH_open_port -->
<g id="node50" class="node">
<title>SIMPLE_BLUETOOTH_open_port</title>
<polygon fill="palegreen" stroke="black" points="374.5,-307.88 316.5,-307.88 316.5,-271.88 374.5,-271.88 374.5,-307.88"/>
<text xml:space="preserve" text-anchor="middle" x="345.5" y="-286" font-family="Times New Roman,serif" font-size="10.00">open_port</text>
</g>
<!-- SIMPLE_BLUETOOTH_close -->
<g id="node51" class="node">
<title>SIMPLE_BLUETOOTH_close</title>
<polygon fill="palegreen" stroke="black" points="322.5,-685.88 268.5,-685.88 268.5,-649.88 322.5,-649.88 322.5,-685.88"/>
<text xml:space="preserve" text-anchor="middle" x="295.5" y="-664" font-family="Times New Roman,serif" font-size="10.00">close</text>
</g>
<!-- SIMPLE_BLUETOOTH_write -->
<g id="node52" class="node">
<title>SIMPLE_BLUETOOTH_write</title>
<polygon fill="khaki" stroke="black" points="334.5,-451.88 280.5,-451.88 280.5,-415.88 334.5,-415.88 334.5,-451.88"/>
<text xml:space="preserve" text-anchor="middle" x="307.5" y="-430" font-family="Times New Roman,serif" font-size="10.00">write</text>
</g>
<!-- SIMPLE_BLUETOOTH_write_bytes -->
<g id="node53" class="node">
<title>SIMPLE_BLUETOOTH_write_bytes</title>
<polygon fill="khaki" stroke="black" points="674.5,-445.88 610.5,-445.88 610.5,-409.88 674.5,-409.88 674.5,-445.88"/>
<text xml:space="preserve" text-anchor="middle" x="642.5" y="-424" font-family="Times New Roman,serif" font-size="10.00">write_bytes</text>
</g>
<!-- SIMPLE_BLUETOOTH_read -->
<g id="node54" class="node">
<title>SIMPLE_BLUETOOTH_read</title>
<polygon fill="palegreen" stroke="black" points="574.5,-691.88 520.5,-691.88 520.5,-655.88 574.5,-655.88 574.5,-691.88"/>
<text xml:space="preserve" text-anchor="middle" x="547.5" y="-670" font-family="Times New Roman,serif" font-size="10.00">read</text>
</g>
<!-- SIMPLE_BLUETOOTH_read_bytes -->
<g id="node55" class="node">
<title>SIMPLE_BLUETOOTH_read_bytes</title>
<polygon fill="palegreen" stroke="black" points="358.62,-367.88 298.38,-367.88 298.38,-331.88 358.62,-331.88 358.62,-367.88"/>
<text xml:space="preserve" text-anchor="middle" x="328.5" y="-346" font-family="Times New Roman,serif" font-size="10.00">read_bytes</text>
</g>
<!-- SIMPLE_BLUETOOTH_read_line -->
<g id="node56" class="node">
<title>SIMPLE_BLUETOOTH_read_line</title>
<polygon fill="palegreen" stroke="black" points="418.62,-691.88 364.38,-691.88 364.38,-655.88 418.62,-655.88 418.62,-691.88"/>
<text xml:space="preserve" text-anchor="middle" x="391.5" y="-670" font-family="Times New Roman,serif" font-size="10.00">read_line</text>
</g>
<!-- SIMPLE_BLUETOOTH_set_config -->
<g id="node57" class="node">
<title>SIMPLE_BLUETOOTH_set_config</title>
<polygon fill="palegreen" stroke="black" points="362.88,-571.88 304.12,-571.88 304.12,-535.88 362.88,-535.88 362.88,-571.88"/>
<text xml:space="preserve" text-anchor="middle" x="333.5" y="-550" font-family="Times New Roman,serif" font-size="10.00">set_config</text>
</g>
<!-- SIMPLE_BLUETOOTH_set_baud_rate -->
<g id="node58" class="node">
<title>SIMPLE_BLUETOOTH_set_baud_rate</title>
<polygon fill="palegreen" stroke="black" points="515,-631.88 442,-631.88 442,-595.88 515,-595.88 515,-631.88"/>
<text xml:space="preserve" text-anchor="middle" x="478.5" y="-610" font-family="Times New Roman,serif" font-size="10.00">set_baud_rate</text>
</g>
<!-- SIMPLE_BLUETOOTH_config_9600 -->
<g id="node59" class="node">
<title>SIMPLE_BLUETOOTH_config_9600</title>
<polygon fill="khaki" stroke="black" points="648.75,-505.87 580.25,-505.87 580.25,-469.87 648.75,-469.87 648.75,-505.87"/>
<text xml:space="preserve" text-anchor="middle" x="614.5" y="-484" font-family="Times New Roman,serif" font-size="10.00">config_9600</text>
</g>
<!-- SIMPLE_BLUETOOTH_config_115200 -->
<g id="node60" class="node">
<title>SIMPLE_BLUETOOTH_config_115200</title>
<polygon fill="khaki" stroke="black" points="556.62,-547.88 478.38,-547.88 478.38,-511.88 556.62,-511.88 556.62,-547.88"/>
<text xml:space="preserve" text-anchor="middle" x="517.5" y="-526" font-family="Times New Roman,serif" font-size="10.00">config_115200</text>
</g>
<!-- SIMPLE_BLUETOOTH_config_38400 -->
<g id="node61" class="node">
<title>SIMPLE_BLUETOOTH_config_38400</title>
<polygon fill="khaki" stroke="black" points="431.37,-427.88 357.62,-427.88 357.62,-391.88 431.37,-391.88 431.37,-427.88"/>
<text xml:space="preserve" text-anchor="middle" x="394.5" y="-406" font-family="Times New Roman,serif" font-size="10.00">config_38400</text>
</g>
<!-- SIMPLE_BLUETOOTH_scanner -->
<g id="node62" class="node">
<title>SIMPLE_BLUETOOTH_scanner</title>
<polygon fill="lightgray" stroke="black" points="292.5,-307.88 238.5,-307.88 238.5,-271.88 292.5,-271.88 292.5,-307.88"/>
<text xml:space="preserve" text-anchor="middle" x="265.5" y="-286" font-family="Times New Roman,serif" font-size="10.00">scanner</text>
</g>
<!-- SIMPLE_BLUETOOTH_active_port -->
<g id="node63" class="node">
<title>SIMPLE_BLUETOOTH_active_port</title>
<polygon fill="lightgray" stroke="black" points="660.75,-667.88 598.25,-667.88 598.25,-631.88 660.75,-631.88 660.75,-667.88"/>
<text xml:space="preserve" text-anchor="middle" x="629.5" y="-646" font-family="Times New Roman,serif" font-size="10.00">active_port</text>
</g>
<!-- LIB_TESTS_test_device_creation -->
<g id="node64" class="node">
<title>LIB_TESTS_test_device_creation</title>
<polygon fill="lightcoral" stroke="black" points="1073.38,-498.38 972.62,-498.38 972.62,-462.38 1073.38,-462.38 1073.38,-498.38"/>
<text xml:space="preserve" text-anchor="middle" x="1023" y="-476.5" font-family="Times New Roman,serif" font-size="10.00">test_device_creation</text>
</g>
<!-- LIB_TESTS_test_device_unknown -->
<g id="node65" class="node">
<title>LIB_TESTS_test_device_unknown</title>
<polygon fill="lightcoral" stroke="black" points="1023.38,-442.38 916.62,-442.38 916.62,-406.38 1023.38,-406.38 1023.38,-442.38"/>
<text xml:space="preserve" text-anchor="middle" x="970" y="-420.5" font-family="Times New Roman,serif" font-size="10.00">test_device_unknown</text>
</g>
<!-- LIB_TESTS_test_device_display_name -->
<g id="node66" class="node">
<title>LIB_TESTS_test_device_display_name</title>
<polygon fill="lightcoral" stroke="black" points="943.38,-386.38 818.62,-386.38 818.62,-350.38 943.38,-350.38 943.38,-386.38"/>
<text xml:space="preserve" text-anchor="middle" x="881" y="-364.5" font-family="Times New Roman,serif" font-size="10.00">test_device_display_name</text>
</g>
<!-- LIB_TESTS_test_scanner_creation -->
<g id="node67" class="node">
<title>LIB_TESTS_test_scanner_creation</title>
<polygon fill="lightcoral" stroke="black" points="986.25,-330.38 881.75,-330.38 881.75,-294.38 986.25,-294.38 986.25,-330.38"/>
<text xml:space="preserve" text-anchor="middle" x="934" y="-308.5" font-family="Times New Roman,serif" font-size="10.00">test_scanner_creation</text>
</g>
<!-- LIB_TESTS_test_scanner_scan -->
<g id="node68" class="node">
<title>LIB_TESTS_test_scanner_scan</title>
<polygon fill="lightcoral" stroke="black" points="970.75,-274.38 881.25,-274.38 881.25,-238.38 970.75,-238.38 970.75,-274.38"/>
<text xml:space="preserve" text-anchor="middle" x="926" y="-252.5" font-family="Times New Roman,serif" font-size="10.00">test_scanner_scan</text>
</g>
<!-- LIB_TESTS_test_port_creation -->
<g id="node69" class="node">
<title>LIB_TESTS_test_port_creation</title>
<polygon fill="lightcoral" stroke="black" points="867.12,-330.38 776.88,-330.38 776.88,-294.38 867.12,-294.38 867.12,-330.38"/>
<text xml:space="preserve" text-anchor="middle" x="822" y="-308.5" font-family="Times New Roman,serif" font-size="10.00">test_port_creation</text>
</g>
<!-- LIB_TESTS_test_port_from_device -->
<g id="node70" class="node">
<title>LIB_TESTS_test_port_from_device</title>
<polygon fill="lightcoral" stroke="black" points="1067.12,-386.38 958.87,-386.38 958.87,-350.38 1067.12,-350.38 1067.12,-386.38"/>
<text xml:space="preserve" text-anchor="middle" x="1013" y="-364.5" font-family="Times New Roman,serif" font-size="10.00">test_port_from_device</text>
</g>
<!-- LIB_TESTS_test_port_config -->
<g id="node71" class="node">
<title>LIB_TESTS_test_port_config</title>
<polygon fill="lightcoral" stroke="black" points="957.75,-547.38 874.25,-547.38 874.25,-511.38 957.75,-511.38 957.75,-547.38"/>
<text xml:space="preserve" text-anchor="middle" x="916" y="-525.5" font-family="Times New Roman,serif" font-size="10.00">test_port_config</text>
</g>
<!-- LIB_TESTS_test_facade_creation -->
<g id="node72" class="node">
<title>LIB_TESTS_test_facade_creation</title>
<polygon fill="lightcoral" stroke="black" points="898,-491.38 798,-491.38 798,-455.38 898,-455.38 898,-491.38"/>
<text xml:space="preserve" text-anchor="middle" x="848" y="-469.5" font-family="Times New Roman,serif" font-size="10.00">test_facade_creation</text>
</g>
<!-- LIB_TESTS_test_facade_configs -->
<g id="node73" class="node">
<title>LIB_TESTS_test_facade_configs</title>
<polygon fill="lightcoral" stroke="black" points="1104.5,-281.38 1007.5,-281.38 1007.5,-245.38 1104.5,-245.38 1104.5,-281.38"/>
<text xml:space="preserve" text-anchor="middle" x="1056" y="-259.5" font-family="Times New Roman,serif" font-size="10.00">test_facade_configs</text>
</g>
<!-- LIB_TESTS_test_facade_scan -->
<g id="node74" class="node">
<title>LIB_TESTS_test_facade_scan</title>
<polygon fill="lightcoral" stroke="black" points="833.5,-274.38 748.5,-274.38 748.5,-238.38 833.5,-238.38 833.5,-274.38"/>
<text xml:space="preserve" text-anchor="middle" x="791" y="-252.5" font-family="Times New Roman,serif" font-size="10.00">test_facade_scan</text>
</g>
<!-- TEST_APP_make -->
<g id="node75" class="node">
<title>TEST_APP_make</title>
<polygon fill="lightcoral" stroke="black" points="54,-716.38 0,-716.38 0,-680.38 54,-680.38 54,-716.38"/>
<text xml:space="preserve" text-anchor="middle" x="27" y="-694.5" font-family="Times New Roman,serif" font-size="10.00">make</text>
</g>
<!-- TEST_APP_run_lib_tests -->
<g id="node76" class="node">
<title>TEST_APP_run_lib_tests</title>
<polygon fill="lightcoral" stroke="black" points="103.63,-771.38 34.38,-771.38 34.38,-735.38 103.63,-735.38 103.63,-771.38"/>
<text xml:space="preserve" text-anchor="middle" x="69" y="-749.5" font-family="Times New Roman,serif" font-size="10.00">run_lib_tests</text>
</g>
<!-- TEST_APP_passed -->
<g id="node77" class="node">
<title>TEST_APP_passed</title>
<polygon fill="lightgray" stroke="black" points="164,-826.38 110,-826.38 110,-790.38 164,-790.38 164,-826.38"/>
<text xml:space="preserve" text-anchor="middle" x="137" y="-804.5" font-family="Times New Roman,serif" font-size="10.00">passed</text>
</g>
<!-- TEST_APP_failed -->
<g id="node78" class="node">
<title>TEST_APP_failed</title>
<polygon fill="lightgray" stroke="black" points="89,-831.38 35,-831.38 35,-795.38 89,-795.38 89,-831.38"/>
<text xml:space="preserve" text-anchor="middle" x="62" y="-809.5" font-family="Times New Roman,serif" font-size="10.00">failed</text>
</g>
<!-- TEST_APP_run_test -->
<g id="node79" class="node">
<title>TEST_APP_run_test</title>
<polygon fill="lightcoral" stroke="black" points="179,-741.38 125,-741.38 125,-705.38 179,-705.38 179,-741.38"/>
<text xml:space="preserve" text-anchor="middle" x="152" y="-719.5" font-family="Times New Roman,serif" font-size="10.00">run_test</text>
</g>
<!-- legend_full -->
<g id="node80" class="node">
<title>legend_full</title>
<polygon fill="palegreen" stroke="black" points="678.38,-105 564.12,-105 564.12,-64 678.38,-64 678.38,-105"/>
<text xml:space="preserve" text-anchor="middle" x="621.25" y="-87.7" font-family="Times New Roman,serif" font-size="14.00">Full Contract</text>
<text xml:space="preserve" text-anchor="middle" x="621.25" y="-71.2" font-family="Times New Roman,serif" font-size="14.00">(require + ensure)</text>
</g>
<!-- legend_partial -->
<g id="node81" class="node">
<title>legend_partial</title>
<polygon fill="khaki" stroke="black" points="688.88,-41 571.62,-41 571.62,0 688.88,0 688.88,-41"/>
<text xml:space="preserve" text-anchor="middle" x="630.25" y="-23.7" font-family="Times New Roman,serif" font-size="14.00">Partial Contract</text>
<text xml:space="preserve" text-anchor="middle" x="630.25" y="-7.2" font-family="Times New Roman,serif" font-size="14.00">(require or ensure)</text>
</g>
<!-- legend_none -->
<g id="node82" class="node">
<title>legend_none</title>
<polygon fill="lightcoral" stroke="black" points="670.62,-163.5 587.87,-163.5 587.87,-127.5 670.62,-127.5 670.62,-163.5"/>
<text xml:space="preserve" text-anchor="middle" x="629.25" y="-140.45" font-family="Times New Roman,serif" font-size="14.00">No Contract</text>
</g>
<!-- legend_attr -->
<g id="node83" class="node">
<title>legend_attr</title>
<polygon fill="lightgray" stroke="black" points="564.62,-169 499.88,-169 499.88,-128 564.62,-128 564.62,-169"/>
<text xml:space="preserve" text-anchor="middle" x="532.25" y="-151.7" font-family="Times New Roman,serif" font-size="14.00">Attribute</text>
<text xml:space="preserve" text-anchor="middle" x="532.25" y="-135.2" font-family="Times New Roman,serif" font-size="14.00">(n/a)</text>
</g>
<!-- legend_stats -->
<g id="node84" class="node">
<title>legend_stats</title>
<polygon fill="white" stroke="black" points="536.38,-107 476.12,-107 476.12,0 542.38,0 542.38,-101 536.38,-107"/>
<polyline fill="none" stroke="black" points="536.38,-107 536.38,-101"/>
<polyline fill="none" stroke="black" points="542.38,-101 536.38,-101"/>
<text xml:space="preserve" text-anchor="middle" x="509.25" y="-89.7" font-family="Times New Roman,serif" font-size="14.00">Statistics</text>
<text xml:space="preserve" text-anchor="middle" x="509.25" y="-73.2" font-family="Times New Roman,serif" font-size="14.00">Full: 14</text>
<text xml:space="preserve" text-anchor="middle" x="509.25" y="-56.7" font-family="Times New Roman,serif" font-size="14.00">Partial: 9</text>
<text xml:space="preserve" text-anchor="middle" x="509.25" y="-40.2" font-family="Times New Roman,serif" font-size="14.00">None: 39</text>
<text xml:space="preserve" text-anchor="middle" x="509.25" y="-23.7" font-family="Times New Roman,serif" font-size="14.00">Attr: 18</text>
<text xml:space="preserve" text-anchor="middle" x="509.25" y="-7.2" font-family="Times New Roman,serif" font-size="14.00">Total: 80</text>
</g>
</g>
</svg>
