<?xml version="1.0" encoding="UTF-8" standalone="no"?>
<!DOCTYPE svg PUBLIC "-//W3C//DTD SVG 1.1//EN"
 "http://www.w3.org/Graphics/SVG/1.1/DTD/svg11.dtd">
<!-- Generated by graphviz version 14.1.1 (20251213.1925)
 -->
<!-- Title: Dependencies Pages: 1 -->
<svg width="358pt" height="357pt"
 viewBox="0.00 0.00 358.00 357.00" xmlns="http://www.w3.org/2000/svg" xmlns:xlink="http://www.w3.org/1999/xlink">
<g id="graph0" class="graph" transform="scale(1 1) rotate(0) translate(4 352.5)">
<title>Dependencies</title>
<polygon fill="white" stroke="none" points="-4,4 -4,-352.5 354,-352.5 354,4 -4,4"/>
<text xml:space="preserve" text-anchor="middle" x="175" y="-7.2" font-family="Times New Roman,serif" font-size="14.00">simple_bluetooth &#45; Dependencies</text>
<!-- simple_bluetooth -->
<g id="node1" class="node">
<title>simple_bluetooth</title>
<polygon fill="lightblue" stroke="black" points="110.5,-204.5 0,-204.5 0,-168.5 110.5,-168.5 110.5,-204.5"/>
<text xml:space="preserve" text-anchor="middle" x="55.25" y="-181.45" font-family="Times New Roman,serif" font-size="14.00">simple_bluetooth</text>
</g>
<!-- simple_serial -->
<g id="node2" class="node">
<title>simple_serial</title>
<polygon fill="lightblue" stroke="black" points="346.62,-348.5 257.88,-348.5 257.88,-312.5 346.62,-312.5 346.62,-348.5"/>
<text xml:space="preserve" text-anchor="middle" x="302.25" y="-325.45" font-family="Times New Roman,serif" font-size="14.00">simple_serial</text>
</g>
<!-- simple_bluetooth&#45;&gt;simple_serial -->
<g id="edge1" class="edge">
<title>simple_bluetooth&#45;&gt;simple_serial</title>
<path fill="none" stroke="black" stroke-dasharray="5,2" d="M55,-204.74C55,-243.49 55,-330.5 55,-330.5 55,-330.5 245.96,-330.5 245.96,-330.5"/>
<polygon fill="black" stroke="black" points="245.96,-334 255.96,-330.5 245.96,-327 245.96,-334"/>
</g>
<!-- simple_testing -->
<g id="node3" class="node">
<title>simple_testing</title>
<polygon fill="lightblue" stroke="black" points="350,-276.5 254.5,-276.5 254.5,-240.5 350,-240.5 350,-276.5"/>
<text xml:space="preserve" text-anchor="middle" x="302.25" y="-253.45" font-family="Times New Roman,serif" font-size="14.00">simple_testing</text>
</g>
<!-- simple_bluetooth&#45;&gt;simple_testing -->
<g id="edge2" class="edge">
<title>simple_bluetooth&#45;&gt;simple_testing</title>
<path fill="none" stroke="black" stroke-dasharray="5,2" d="M110.91,-192.5C173.05,-192.5 265,-192.5 265,-192.5 265,-192.5 265,-228.6 265,-228.6"/>
<polygon fill="black" stroke="black" points="261.5,-228.6 265,-238.6 268.5,-228.6 261.5,-228.6"/>
</g>
<!-- base -->
<g id="node4" class="node">
<title>base</title>
<polygon fill="lightgray" stroke="black" points="329.25,-204.5 275.25,-204.5 275.25,-168.5 329.25,-168.5 329.25,-204.5"/>
<text xml:space="preserve" text-anchor="middle" x="302.25" y="-181.45" font-family="Times New Roman,serif" font-size="14.00">base</text>
</g>
<!-- simple_bluetooth&#45;&gt;base -->
<g id="edge3" class="edge">
<title>simple_bluetooth&#45;&gt;base</title>
<path fill="none" stroke="black" stroke-dasharray="5,2" d="M110.99,-180.5C110.99,-180.5 263.39,-180.5 263.39,-180.5"/>
<polygon fill="black" stroke="black" points="263.39,-184 273.39,-180.5 263.39,-177 263.39,-184"/>
</g>
<!-- time -->
<g id="node5" class="node">
<title>time</title>
<polygon fill="lightgray" stroke="black" points="329.25,-132.5 275.25,-132.5 275.25,-96.5 329.25,-96.5 329.25,-132.5"/>
<text xml:space="preserve" text-anchor="middle" x="302.25" y="-109.45" font-family="Times New Roman,serif" font-size="14.00">time</text>
</g>
<!-- simple_bluetooth&#45;&gt;time -->
<g id="edge4" class="edge">
<title>simple_bluetooth&#45;&gt;time</title>
<path fill="none" stroke="black" stroke-dasharray="5,2" d="M74,-168.33C74,-147 74,-114.5 74,-114.5 74,-114.5 263.66,-114.5 263.66,-114.5"/>
<polygon fill="black" stroke="black" points="263.66,-118 273.66,-114.5 263.66,-111 263.66,-118"/>
</g>
<!-- testing -->
<g id="node6" class="node">
<title>testing</title>
<polygon fill="lightgray" stroke="black" points="329.25,-60.5 275.25,-60.5 275.25,-24.5 329.25,-24.5 329.25,-60.5"/>
<text xml:space="preserve" text-anchor="middle" x="302.25" y="-37.45" font-family="Times New Roman,serif" font-size="14.00">testing</text>
</g>
<!-- simple_bluetooth&#45;&gt;testing -->
<g id="edge5" class="edge">
<title>simple_bluetooth&#45;&gt;testing</title>
<path fill="none" stroke="black" stroke-dasharray="5,2" d="M37,-168.26C37,-129.51 37,-42.5 37,-42.5 37,-42.5 263.35,-42.5 263.35,-42.5"/>
<polygon fill="black" stroke="black" points="263.35,-46 273.35,-42.5 263.35,-39 263.35,-46"/>
</g>
</g>
</svg>
